# xmcd CD database file
#
# Track frame offsets:
#	150
#	10945
#	33676
#	50099
#	60327
#	70189
#	89775
#	103101
#	116918
#	125427
#	141400
#	165937
#	184254
#	197924
#	213205
#	231059
#	246551
#
# Disc length: 3390 seconds
#
# Revision: 0
# Processed by: cddbd v1.5.2PL0 Copyright (c) Steve Scherf et al.
# Submitted via: CDex 1.51
#
DISCID=020d3c11
DTITLE=Drom Blanchard - Sinti Fire
DYEAR=2013
DGENRE=Jazz
TTITLE0=Drom Blanchard - Charleston
TTITLE1=Drom Blanchard - Troublant Boléro
TTITLE2=Drom Blanchard - J'attendrai
TTITLE3=Drom Blanchard - Valse à Django
TTITLE4=Drom Blanchard - Cherokee
TTITLE5=Drom Blanchard - Cherish
TTITLE6=Drom Blanchard - Valse à Dora
TTITLE7=Drom Blanchard - There will never be another you
TTITLE8=Drom Blanchard - Rêve d'un soir
TTITLE9=Drom Blanchard - Hélèna
TTITLE10=Drom Blanchard - Cry me a river
TTITLE11=Drom Blanchard - Fleur de lavande
TTITLE12=Drom Blanchard - All the people that I love
TTITLE13=Drom Blanchard - Some of these days
TTITLE14=Drom Blanchard - Agua marina
TTITLE15=Drom Blanchard - Salla
TTITLE16=Drom Blanchard - Days of wine and roses
EXTD=YEAR: 2013
EXTT0=
EXTT1=
EXTT2=
EXTT3=
EXTT4=
EXTT5=
EXTT6=
EXTT7=
EXTT8=
EXTT9=
EXTT10=
EXTT11=
EXTT12=
EXTT13=
EXTT14=
EXTT15=
EXTT16=
PLAYORDER=
